<?xml version="1.0" encoding="UTF-8" standalone="no"?>
<!-- Created with Inkscape (http://www.inkscape.org/) -->

<svg
   xmlns:dc="http://purl.org/dc/elements/1.1/"
   xmlns:cc="http://creativecommons.org/ns#"
   xmlns:rdf="http://www.w3.org/1999/02/22-rdf-syntax-ns#"
   xmlns:svg="http://www.w3.org/2000/svg"
   xmlns="http://www.w3.org/2000/svg"
   xmlns:sodipodi="http://sodipodi.sourceforge.net/DTD/sodipodi-0.dtd"
   xmlns:inkscape="http://www.inkscape.org/namespaces/inkscape"
   width="1132.2"
   height="789.09998"
   id="svg2"
   version="1.1"
   inkscape:version="0.48.5 r10040"
   sodipodi:docname="cintric-explanation.svg">
  <defs
     id="defs4" />
  <sodipodi:namedview
     id="base"
     pagecolor="#ffffff"
     bordercolor="#666666"
     borderopacity="1.0"
     inkscape:pageopacity="0.0"
     inkscape:pageshadow="2"
     inkscape:zoom="0.9899495"
     inkscape:cx="721.65502"
     inkscape:cy="388.85654"
     inkscape:document-units="px"
     inkscape:current-layer="layer1"
     showgrid="false"
     inkscape:window-width="1920"
     inkscape:window-height="1017"
     inkscape:window-x="1912"
     inkscape:window-y="-8"
     inkscape:window-maximized="1"
     units="px" />
  <metadata
     id="metadata7">
    <rdf:RDF>
      <cc:Work
         rdf:about="">
        <dc:format>image/svg+xml</dc:format>
        <dc:type
           rdf:resource="http://purl.org/dc/dcmitype/StillImage" />
        <dc:title></dc:title>
      </cc:Work>
    </rdf:RDF>
  </metadata>
  <g
     inkscape:label="Layer 1"
     inkscape:groupmode="layer"
     id="layer1"
     transform="translate(0,-263.25361)">
    <g
       id="g3048"
       transform="translate(-353.3683,-463.24793)">
      <g
         id="g2986">
        <path
           id="path2988"
           d="M 835.716,1288.426 H 673.823 c -5.743,0 -10.4,4.661 -10.4,10.403 v 104.273 c 0,5.741 4.657,10.397 10.4,10.397 h 161.894 c 5.741,0 10.398,-4.656 10.398,-10.397 v -104.27 c 0,-5.745 -4.657,-10.406 -10.399,-10.406 z m -10.402,104.283 h -141.09 v -83.478 h 141.085 v 83.478 h 0.005 z"
           inkscape:connector-curvature="0"
           style="fill:#1ce0f4" />
        <path
           id="path2990"
           d="m 916.171,1163.534 -44.48,-45.403 v -45.396 c 0,-5.741 -4.662,-10.398 -10.402,-10.398 h -364.21 c -5.744,0 -10.4,4.657 -10.4,10.398 v 45.396 l -44.481,45.403 c -1.907,1.945 -2.973,4.555 -2.973,7.282 v 39.583 c 0,20.353 10.855,38.22 27.075,48.11 v 187.247 c 0,5.741 4.659,10.397 10.4,10.397 h 52.464 c 0.052,0 0.094,-0.014 0.149,-0.014 0.054,0 0.097,0.014 0.149,0.014 5.744,0 10.4,-4.656 10.4,-10.397 v -136.524 h 74.562 v 136.524 c 0,5.741 4.657,10.397 10.4,10.397 H 879.53 c 5.746,0 10.398,-4.656 10.398,-10.397 v -186.024 c 17.395,-9.596 29.199,-28.111 29.199,-49.333 v -39.583 c 0.011,-2.727 -1.056,-5.337 -2.956,-7.282 z M 507.483,1083.14 h 343.402 v 28.839 H 507.483 v -28.839 z m 361.659,352.213 H 635.234 v -136.52 c 0,-5.746 -4.657,-10.397 -10.4,-10.397 h -95.365 c -5.744,0 -10.4,4.651 -10.4,10.397 v 136.52 H 487.11 v -169.276 c 2.752,0.417 5.564,0.63 8.432,0.63 18.923,0 35.692,-9.382 45.913,-23.74 10.215,14.358 26.989,23.74 45.912,23.74 18.925,0 35.694,-9.382 45.915,-23.74 10.216,14.358 26.99,23.74 45.912,23.74 18.921,0 35.7,-9.382 45.913,-23.74 10.219,14.354 26.993,23.74 45.913,23.74 18.925,0 35.694,-9.382 45.912,-23.74 10.218,14.358 26.993,23.74 45.914,23.74 2.135,0 4.242,-0.133 6.318,-0.364 v 169.011 h -0.022 z m 29.191,-224.959 c 0,19.576 -15.928,35.507 -35.51,35.507 -19.575,0 -35.505,-15.931 -35.505,-35.507 0,-5.744 -4.657,-10.4 -10.398,-10.4 -5.746,0 -10.402,4.656 -10.402,10.4 0,19.576 -15.931,35.507 -35.51,35.507 -19.574,0 -35.509,-15.931 -35.509,-35.507 0,-5.744 -4.652,-10.4 -10.398,-10.4 -5.741,0 -10.397,4.656 -10.397,10.4 0,19.576 -15.931,35.507 -35.514,35.507 -19.583,0 -35.507,-15.931 -35.507,-35.507 0,-5.744 -4.657,-10.4 -10.4,-10.4 -5.743,0 -10.4,4.656 -10.4,10.4 0,19.576 -15.931,35.507 -35.507,35.507 -19.578,0 -35.509,-15.931 -35.509,-35.507 0,-5.744 -4.657,-10.4 -10.4,-10.4 -5.743,0 -10.4,4.656 -10.4,10.4 0,19.576 -15.929,35.507 -35.507,35.507 -19.579,0 -35.507,-15.931 -35.507,-35.507 v -35.339 l 41.419,-42.281 h 355.454 l 41.42,42.281 v 35.339 h -0.013 z"
           inkscape:connector-curvature="0"
           style="fill:#1ce0f4" />
      </g>
      <path
         id="path2992"
         d="m 889.929,1392.315 c 222.783,3.632 394.361,26.24 394.361,53.59 0,29.878 -204.774,54.099 -457.377,54.099 -252.603,0 -457.377,-24.221 -457.377,-54.099 0,-12.541 36.08,-24.086 96.632,-33.261"
         stroke-miterlimit="10"
         inkscape:connector-curvature="0"
         style="fill:none;stroke:#1ce0f4;stroke-width:16;stroke-linecap:round;stroke-miterlimit:10" />
      <path
         id="path2994"
         d="M 826.913,1391.807"
         stroke-miterlimit="10"
         inkscape:connector-curvature="0"
         style="fill:none;stroke:#1ce0f4;stroke-width:16;stroke-miterlimit:10" />
      <path
         id="path2996"
         d="M 1055.595,1190.687 H 961.98 c -11.489,0 -20.803,9.312 -20.803,20.802 v 223.86 c 0,11.49 9.313,20.805 20.803,20.805 h 93.614 c 11.489,0 20.803,-9.314 20.803,-20.805 v -223.86 c 0,-11.49 -9.313,-20.802 -20.802,-20.802 z m -57.036,22.074 h 20.463 c 1.526,0 2.768,1.24 2.768,2.771 0,1.531 -1.241,2.768 -2.768,2.768 h -20.463 c -1.534,0 -2.774,-1.236 -2.774,-2.768 0,-1.532 1.239,-2.771 2.774,-2.771 z m -11.927,-1.061 c 1.824,0 3.305,1.479 3.305,3.302 0,1.823 -1.48,3.298 -3.305,3.298 -1.825,0 -3.303,-1.476 -3.303,-3.298 0,-1.822 1.479,-3.302 3.303,-3.302 z m 22.155,233.226 c -7.182,0 -13.003,-5.815 -13.003,-12.997 0,-7.184 5.821,-13.002 13.003,-13.002 7.183,0 13.002,5.818 13.002,13.002 0,7.181 -5.819,12.997 -13.002,12.997 z m 57.209,-35.259 H 951.579 v -172.494 h 114.417 v 172.494 z"
         inkscape:connector-curvature="0"
         style="fill:#555555" />
      <path
         id="path2998"
         d="m 1216.988,1190.687 h -93.613 c -11.489,0 -20.804,9.312 -20.804,20.802 v 223.86 c 0,11.49 9.314,20.805 20.804,20.805 h 93.613 c 11.489,0 20.803,-9.314 20.803,-20.805 v -223.86 c 0,-11.49 -9.313,-20.802 -20.803,-20.802 z m -57.036,22.074 h 20.463 c 1.526,0 2.769,1.24 2.769,2.771 0,1.531 -1.242,2.768 -2.769,2.768 h -20.463 c -1.534,0 -2.774,-1.236 -2.774,-2.768 0,-1.532 1.24,-2.771 2.774,-2.771 z m -11.927,-1.061 c 1.824,0 3.305,1.479 3.305,3.302 0,1.823 -1.48,3.298 -3.305,3.298 -1.823,0 -3.303,-1.476 -3.303,-3.298 0,-1.822 1.48,-3.302 3.303,-3.302 z m 22.157,233.226 c -7.182,0 -13.004,-5.815 -13.004,-12.997 0,-7.184 5.822,-13.002 13.004,-13.002 7.182,0 13.002,5.818 13.002,13.002 0,7.181 -5.821,12.997 -13.002,12.997 z m 57.208,-35.259 h -114.417 v -172.494 h 114.417 v 172.494 z"
         inkscape:connector-curvature="0"
         style="fill:#555555" />
      <path
         id="path3000"
         d="M 1082.461,1022.011"
         stroke-miterlimit="10"
         inkscape:connector-curvature="0"
         style="fill:none;stroke:#1ce0f4;stroke-width:16;stroke-linecap:round;stroke-linejoin:round;stroke-miterlimit:10" />
      <rect
         id="rect3002"
         height="173"
         width="115"
         y="1236.856"
         x="951.37201"
         style="fill:#ffffff" />
      <rect
         id="rect3004"
         height="173"
         width="114"
         y="1236.856"
         x="1112.3719"
         style="fill:#ffffff" />
      <path
         id="path3006"
         d="m 1446.988,1190.687 h -93.613 c -11.489,0 -20.804,9.312 -20.804,20.802 v 223.86 c 0,11.49 9.314,20.805 20.804,20.805 h 93.613 c 11.489,0 20.803,-9.314 20.803,-20.805 v -223.86 c 0,-11.49 -9.313,-20.802 -20.803,-20.802 z m -57.036,22.074 h 20.463 c 1.526,0 2.769,1.24 2.769,2.771 0,1.531 -1.242,2.768 -2.769,2.768 h -20.463 c -1.534,0 -2.774,-1.236 -2.774,-2.768 0,-1.532 1.24,-2.771 2.774,-2.771 z m -11.927,-1.061 c 1.824,0 3.305,1.479 3.305,3.302 0,1.823 -1.48,3.298 -3.305,3.298 -1.823,0 -3.303,-1.476 -3.303,-3.298 0,-1.822 1.48,-3.302 3.303,-3.302 z m 22.157,233.226 c -7.182,0 -13.004,-5.815 -13.004,-12.997 0,-7.184 5.822,-13.002 13.004,-13.002 7.182,0 13.002,5.818 13.002,13.002 0,7.181 -5.821,12.997 -13.002,12.997 z m 57.208,-35.259 h -114.417 v -172.494 h 114.417 v 172.494 z"
         inkscape:connector-curvature="0"
         style="opacity:0.4;fill:#555555" />
      <rect
         id="rect3008"
         height="173"
         width="114"
         y="1236.856"
         x="1342.3719"
         style="opacity:0.4;fill:#ffffff" />
      <line
         id="line3010"
         y2="999.961"
         x2="1092.177"
         y1="855.961"
         x1="679.17603"
         stroke-miterlimit="10"
         style="fill:none;stroke:#1ce0f4;stroke-width:16;stroke-miterlimit:10" />
      <path
         id="path3012"
         d="m 740.184,941.429 c 26.634,-19.045 43.992,-50.229 43.992,-85.468 0,-57.99 -47.01,-105 -105,-105 -57.99,0 -105,47.01 -105,105 0,35.412 17.53,66.729 44.386,85.748"
         stroke-miterlimit="10"
         inkscape:connector-curvature="0"
         style="fill:#ffffff;stroke:#1ce0f4;stroke-width:16;stroke-linecap:round;stroke-miterlimit:10" />
      <path
         id="path3014"
         d="m 1185.222,1048.667 c 7.636,-14.557 11.955,-31.126 11.955,-48.706 0,-57.99 -47.011,-105 -105,-105 -57.99,0 -105,47.01 -105,105 0,16.027 3.591,31.215 10.012,44.804"
         stroke-miterlimit="10"
         inkscape:connector-curvature="0"
         style="fill:#ffffff;stroke:#1ce0f4;stroke-width:16;stroke-linecap:round;stroke-miterlimit:10" />
      <path
         id="path3016"
         d="M 1092.177,1104.961"
         stroke-miterlimit="10"
         inkscape:connector-curvature="0"
         style="fill:#ffffff;stroke:#1ce0f4;stroke-width:16;stroke-linecap:round;stroke-miterlimit:10" />
      <text
         id="text3018"
         font-size="121.7713"
         transform="translate(660.9717,898.2769)"
         style="font-size:121.77130127px;fill:#555555;font-family:Aller-Bold">!</text>
      <text
         id="text3020"
         font-size="121.7713"
         transform="translate(1073.9727,1042.7832)"
         style="font-size:121.77130127px;fill:#555555;font-family:Aller-Bold">!</text>
      <polyline
         id="polyline3022"
         points="  618.562,941.709 679.372,1001.667 741.183,940.856 "
         stroke-miterlimit="10"
         style="fill:none;stroke:#1ce0f4;stroke-width:16;stroke-linecap:round;stroke-linejoin:round;stroke-miterlimit:10" />
      <polygon
         id="polygon3024"
         points="912.561,936.452 885.968,882.667 858.776,963.045 "
         stroke-miterlimit="10"
         style="fill:#ffffff;stroke:#1ce0f4;stroke-width:16;stroke-linecap:round;stroke-linejoin:round;stroke-miterlimit:10" />
      <path
         id="path3026"
         d="M 1105.218,1104.944"
         stroke-miterlimit="10"
         inkscape:connector-curvature="0"
         style="fill:none;stroke:#1ce0f4;stroke-width:16;stroke-linecap:round;stroke-linejoin:round;stroke-miterlimit:10" />
      <polyline
         id="polyline3028"
         points="  997.527,1044.769 1022.284,1127.702 1092.898,1108.324 "
         stroke-miterlimit="10"
         style="fill:none;stroke:#1ce0f4;stroke-width:16;stroke-linecap:round;stroke-linejoin:round;stroke-miterlimit:10" />
      <path
         id="path3030"
         d="M 1079.526,1104.944"
         stroke-miterlimit="10"
         inkscape:connector-curvature="0"
         style="fill:none;stroke:#1ce0f4;stroke-width:16;stroke-linecap:round;stroke-linejoin:round;stroke-miterlimit:10" />
      <polyline
         id="polyline3032"
         points="  1186.217,1044.769 1162.46,1127.702 1092.201,1108.422 "
         stroke-miterlimit="10"
         style="fill:none;stroke:#1ce0f4;stroke-width:16;stroke-linecap:round;stroke-linejoin:round;stroke-miterlimit:10" />
      <path
         id="path3034"
         d="M 1102.283,1022.011"
         stroke-miterlimit="10"
         inkscape:connector-curvature="0"
         style="fill:none;stroke:#1ce0f4;stroke-width:16;stroke-linecap:round;stroke-linejoin:round;stroke-miterlimit:10" />
      <path
         id="path3036"
         d="m 1011.007,1362.421 c -1.374,0.568 -3.622,0.568 -4.996,0 l -23.358,-9.676 c -1.374,-0.569 -2.964,-2.159 -3.533,-3.533 l -9.675,-23.357 c -0.569,-1.374 -0.569,-3.623 0,-4.996 l 9.675,-23.358 c 0.569,-1.374 2.159,-2.964 3.533,-3.533 l 23.358,-9.675 c 1.374,-0.569 3.622,-0.569 4.996,0 l 23.358,9.675 c 1.373,0.569 2.963,2.159 3.532,3.533 l 9.676,23.358 c 0.569,1.373 0.569,3.622 0,4.996 l -9.676,23.357 c -0.569,1.374 -2.159,2.964 -3.532,3.533 l -23.358,9.676 z m 13.134,-19.499 c 1.374,-0.569 2.964,-2.159 3.533,-3.533 l 5.569,-13.446 c 0.569,-1.373 0.569,-3.622 0,-4.996 l -5.569,-13.445 c -0.569,-1.374 -2.159,-2.964 -3.533,-3.533 l -13.446,-5.569 c -1.373,-0.569 -3.622,-0.569 -4.996,0 l -13.445,5.569 c -1.374,0.569 -2.964,2.159 -3.533,3.533 l -5.569,13.445 c -0.569,1.374 -0.569,3.623 0,4.996 l 5.569,13.446 c 0.569,1.374 2.159,2.964 3.533,3.533 l 13.445,5.569 c 1.374,0.569 3.623,0.569 4.996,0 l 13.446,-5.569 z"
         clip-rule="evenodd"
         inkscape:connector-curvature="0"
         style="fill:#1ce0f4;fill-rule:evenodd" />
      <path
         id="path3038"
         d="m 1171.87,1363.421 c -1.374,0.568 -3.622,0.568 -4.996,0 l -23.358,-9.676 c -1.374,-0.569 -2.964,-2.159 -3.533,-3.533 l -9.675,-23.357 c -0.569,-1.374 -0.569,-3.623 0,-4.996 l 9.675,-23.358 c 0.569,-1.374 2.159,-2.964 3.533,-3.533 l 23.358,-9.675 c 1.374,-0.569 3.622,-0.569 4.996,0 l 23.358,9.675 c 1.373,0.569 2.963,2.159 3.532,3.533 l 9.676,23.358 c 0.569,1.373 0.569,3.622 0,4.996 l -9.676,23.357 c -0.569,1.374 -2.159,2.964 -3.532,3.533 l -23.358,9.676 z m 13.134,-19.499 c 1.374,-0.569 2.964,-2.159 3.533,-3.533 l 5.569,-13.446 c 0.569,-1.373 0.569,-3.622 0,-4.996 l -5.569,-13.445 c -0.569,-1.374 -2.159,-2.964 -3.533,-3.533 l -13.446,-5.569 c -1.373,-0.569 -3.622,-0.569 -4.996,0 l -13.445,5.569 c -1.374,0.569 -2.964,2.159 -3.533,3.533 l -5.569,13.445 c -0.569,1.374 -0.569,3.623 0,4.996 l 5.569,13.446 c 0.569,1.374 2.159,2.964 3.533,3.533 l 13.445,5.569 c 1.374,0.569 3.623,0.569 4.996,0 l 13.446,-5.569 z"
         clip-rule="evenodd"
         inkscape:connector-curvature="0"
         style="fill:#1ce0f4;fill-rule:evenodd" />
      <path
         id="path3040"
         d="m 1401.87,1363.421 c -1.374,0.568 -3.622,0.568 -4.996,0 l -23.358,-9.676 c -1.374,-0.569 -2.964,-2.159 -3.533,-3.533 l -9.675,-23.357 c -0.569,-1.374 -0.569,-3.623 0,-4.996 l 9.675,-23.358 c 0.569,-1.374 2.159,-2.964 3.533,-3.533 l 23.358,-9.675 c 1.374,-0.569 3.622,-0.569 4.996,0 l 23.358,9.675 c 1.373,0.569 2.963,2.159 3.532,3.533 l 9.676,23.358 c 0.569,1.373 0.569,3.622 0,4.996 l -9.676,23.357 c -0.569,1.374 -2.159,2.964 -3.532,3.533 l -23.358,9.676 z m 13.134,-19.499 c 1.374,-0.569 2.964,-2.159 3.533,-3.533 l 5.569,-13.446 c 0.569,-1.373 0.569,-3.622 0,-4.996 l -5.569,-13.445 c -0.569,-1.374 -2.159,-2.964 -3.533,-3.533 l -13.446,-5.569 c -1.373,-0.569 -3.622,-0.569 -4.996,0 l -13.445,5.569 c -1.374,0.569 -2.964,2.159 -3.533,3.533 l -5.569,13.445 c -0.569,1.374 -0.569,3.623 0,4.996 l 5.569,13.446 c 0.569,1.374 2.159,2.964 3.533,3.533 l 13.445,5.569 c 1.374,0.569 3.623,0.569 4.996,0 l 13.446,-5.569 z"
         clip-rule="evenodd"
         inkscape:connector-curvature="0"
         style="opacity:0.4;fill:#555555;fill-rule:evenodd" />
    </g>
    <path
       style="fill:#ffffff"
       d="m 299.11841,236.74593 c -14.73215,-14.51585 -29.57137,-28.63046 -32.97605,-31.36579 -18.18983,-14.61376 -30.13355,-33.92021 -35.00047,-56.57656 -2.2138,-10.30562 -2.20987,-27.73223 0.009,-38.15863 4.61467,-21.688033 14.9073,-39.410884 31.31108,-53.914492 25.82035,-22.829375 63.38266,-29.861251 96.28218,-18.024566 22.44283,8.074543 42.63033,26.162538 53.50912,47.944153 15.6982,31.431075 12.87383,69.303965 -7.31265,98.058055 -3.97834,5.66685 -12.65403,14.94999 -17.96468,19.22255 -2.16071,1.73835 -14.05357,13.168 -26.42857,25.39923 -12.375,12.23122 -25.23214,24.84182 -28.57143,28.02354 l -6.07143,5.78497 -26.78571,-26.39246 z m 32.14285,-71.32354 0,-6.42857 -6.42857,0 -6.42857,0 0,6.42857 0,6.42857 6.42857,0 6.42857,0 0,-6.42857 z m -2.55727,-18.03571 c 0.95776,-7.50521 3.3346,-50.143926 3.13559,-56.250004 l -0.22117,-6.785714 -6.96429,-0.204438 -6.96428,-0.204437 -0.0104,9.847295 c -0.01,8.989788 2.50998,51.229498 3.28217,55.025868 0.28569,1.40458 0.76979,1.60714 3.84095,1.60714 l 3.51405,0 0.3874,-3.03571 10e-6,0 z"
       id="path3353"
       inkscape:connector-curvature="0"
       transform="translate(0,263.25361)" />
    <path
       style="fill:#ffffff"
       d="m 674.37928,387.66666 c -0.45243,-1.33372 -5.34748,-17.4257 -10.87789,-35.75996 -5.53042,-18.33427 -12.05417,-38.78986 -14.49723,-45.45687 -16.98682,-46.35621 4.76534,-98.21331 50.25941,-119.81835 13.42768,-6.37678 17.75948,-7.41545 33.86365,-8.11979 39.48021,-1.72673 73.41834,17.68724 90.57802,51.81426 13.24095,26.33349 14.37597,52.62953 3.4498,79.92475 -3.16636,7.91003 -9.61576,28.01894 -14.332,44.68645 -4.71625,16.66752 -9.15396,31.3153 -9.86159,32.55061 -0.88685,1.5482 -11.0161,-0.39957 -32.60133,-6.26902 l -31.31473,-8.51507 -18.18274,4.92602 c -10.00051,2.7093 -24.36531,6.62159 -31.92176,8.69395 -10.23671,2.80742 -13.94871,3.14978 -14.56161,1.34302 l 0,0 z m 69.71688,-77.17622 c 0,-6.73435 -0.33672,-7.07107 -7.07107,-7.07107 -6.73435,0 -7.07107,0.33672 -7.07107,7.07107 0,6.73435 0.33672,7.07107 7.07107,7.07107 6.73435,0 7.07107,-0.33672 7.07107,-7.07107 z m -1.30412,-25.75889 c 0.64996,-5.83363 1.78082,-20.83439 2.51301,-33.33503 l 1.33125,-22.72843 -8.6247,0 -8.6247,0 1.42285,28.78934 c 1.67746,33.94106 2.42749,37.88072 7.21172,37.88072 2.83242,0 3.83788,-2.23547 4.77057,-10.6066 l 0,0 z"
       id="path3355"
       inkscape:connector-curvature="0"
       transform="translate(0,263.25361)" />
    <path
       style="fill:#ffffff"
       d="m 674.69932,388.63916 c -0.42583,-0.75742 -4.95955,-15.46875 -10.07493,-32.69185 -5.11538,-17.2231 -11.72082,-38.13326 -14.67877,-46.46702 -6.36251,-17.92587 -8.26515,-39.08079 -4.95075,-55.04617 5.94752,-28.64907 26.8722,-54.7921 54.2687,-67.80264 13.46164,-6.3929 17.73945,-7.41458 34.02834,-8.127 14.79128,-0.64692 21.46781,0.0491 32.39532,3.37721 53.76277,16.37405 82.67065,74.97114 62.3269,126.33837 -2.69491,6.80455 -9.15762,26.9181 -14.36159,44.69679 -5.20397,17.77868 -10.02785,33.3356 -10.71973,34.57091 -0.86527,1.54493 -11.03324,-0.41204 -32.57269,-6.26902 l -31.31473,-8.51507 -18.18274,4.92602 c -10.00051,2.7093 -24.30418,6.60466 -31.78592,8.65632 -7.48175,2.05166 -13.95159,3.11058 -14.37741,2.35315 l 0,0 z m 69.39684,-78.14872 c 0,-6.73435 -0.33672,-7.07107 -7.07107,-7.07107 -6.73435,0 -7.07107,0.33672 -7.07107,7.07107 0,6.73435 0.33672,7.07107 7.07107,7.07107 6.73435,0 7.07107,-0.33672 7.07107,-7.07107 z m -1.33444,-26.76904 c 0.66428,-6.38922 1.81492,-21.38998 2.55697,-33.33503 l 1.34919,-21.71828 -8.64049,0 -8.64049,0 1.42285,28.78934 c 1.675,33.89131 2.43153,37.88072 7.18355,37.88072 2.84779,0 3.80244,-2.32571 4.76842,-11.61675 z"
       id="path3357"
       inkscape:connector-curvature="0"
       transform="translate(0,263.25361)" />
  </g>
</svg>
