<?xml version="1.0" encoding="utf-8"?>
<!-- Generator: Adobe Illustrator 16.0.0, SVG Export Plug-In . SVG Version: 6.00 Build 0)  -->
<!DOCTYPE svg PUBLIC "-//W3C//DTD SVG 1.1//EN" "http://www.w3.org/Graphics/SVG/1.1/DTD/svg11.dtd">
<svg version="1.1" id="Layer_1" xmlns="http://www.w3.org/2000/svg" xmlns:xlink="http://www.w3.org/1999/xlink" x="0px" y="0px"
	 width="1180px" height="850px" viewBox="320.458 701.428 1180 850" enable-background="new 320.458 701.428 1180 850"
	 xml:space="preserve">
<path fill="none" stroke="#85C1C9" stroke-width="6" stroke-linecap="round" stroke-miterlimit="10" d="M889.929,1392.314
	c222.783,3.633,394.361,26.24,394.361,53.591c0,29.878-204.775,54.099-457.377,54.099c-252.603,0-457.377-24.221-457.377-54.099
	c0-12.541,36.08-24.087,96.632-33.262"/>
<path fill="none" stroke="#1CE0F4" stroke-width="16" stroke-miterlimit="10" d="M826.913,1391.807"/>
<g>
	<path fill="none" stroke="#85C1C9" stroke-width="6" stroke-miterlimit="10" d="M825.314,1392.709H684.224v-83.479h141.085v83.479
		H825.314z"/>
	<path fill="none" stroke="#85C1C9" stroke-width="6" stroke-miterlimit="10" d="M916.171,1163.534l-44.48-45.403v-45.396
		c0-5.741-4.662-10.398-10.402-10.398H497.079c-5.744,0-10.4,4.657-10.4,10.398v45.396l-44.48,45.403
		c-1.907,1.944-2.974,4.555-2.974,7.282v39.583c0,20.353,10.855,38.22,27.075,48.109v187.247c0,5.741,4.659,10.397,10.4,10.397
		h52.464c0.052,0,0.094-0.015,0.149-0.015c0.054,0,0.097,0.015,0.148,0.015c5.744,0,10.4-4.656,10.4-10.397v-136.523h74.562v136.523
		c0,5.741,4.657,10.397,10.4,10.397h254.707c5.746,0,10.396-4.656,10.396-10.397v-186.023c17.396-9.597,29.199-28.111,29.199-49.334
		v-39.582C919.138,1168.089,918.072,1165.479,916.171,1163.534z M507.483,1083.14h343.401v28.839H507.483V1083.14z
		 M635.234,1435.354 M869.164,1435.354h-0.021l0,0 M466.3,1258.509c7.234,5.238,20.811,7.568,20.811,7.568
		c2.752,0.417,5.563,0.63,8.432,0.63c18.923,0,35.692-9.382,45.913-23.74c10.215,14.358,26.989,23.74,45.912,23.74
		c18.925,0,35.693-9.382,45.915-23.74c10.216,14.358,26.989,23.74,45.912,23.74c18.921,0,35.699-9.382,45.913-23.74
		c10.219,14.354,26.992,23.74,45.912,23.74c18.926,0,35.694-9.382,45.912-23.74c10.219,14.358,26.994,23.74,45.914,23.74
		c2.137,0,4.242-0.133,6.318-0.364c0,0,12.669-1.177,20.764-6.61"/>
</g>
<path fill="#555555" d="M1055.595,1190.688H961.98c-11.488,0-20.803,9.312-20.803,20.802v223.859
	c0,11.49,9.312,20.806,20.803,20.806h93.613c11.49,0,20.803-9.314,20.803-20.806v-223.859
	C1076.396,1199.999,1067.083,1190.688,1055.595,1190.688z M998.558,1212.761h20.465c1.525,0,2.768,1.24,2.768,2.771
	c0,1.53-1.242,2.768-2.768,2.768h-20.465c-1.533,0-2.773-1.235-2.773-2.768S997.025,1212.761,998.558,1212.761z M986.632,1211.7
	c1.824,0,3.305,1.479,3.305,3.302s-1.48,3.298-3.305,3.298c-1.826,0-3.303-1.476-3.303-3.298S984.808,1211.7,986.632,1211.7z
	 M1008.787,1444.926c-7.182,0-13.002-5.814-13.002-12.997c0-7.184,5.82-13.002,13.002-13.002c7.184,0,13.002,5.818,13.002,13.002
	C1021.789,1439.11,1015.97,1444.926,1008.787,1444.926z M1065.996,1409.667H951.58v-172.494h114.416V1409.667z"/>
<path fill="#555555" d="M1216.988,1190.688h-93.613c-11.488,0-20.803,9.312-20.803,20.802v223.859
	c0,11.49,9.312,20.806,20.803,20.806h93.613c11.488,0,20.803-9.314,20.803-20.806v-223.859
	C1237.791,1199.999,1228.478,1190.688,1216.988,1190.688z M1159.953,1212.761h20.463c1.525,0,2.768,1.24,2.768,2.771
	c0,1.53-1.24,2.768-2.768,2.768h-20.463c-1.535,0-2.775-1.235-2.775-2.768S1158.417,1212.761,1159.953,1212.761z M1148.025,1211.7
	c1.824,0,3.305,1.479,3.305,3.302s-1.48,3.298-3.305,3.298c-1.822,0-3.303-1.476-3.303-3.298S1146.203,1211.7,1148.025,1211.7z
	 M1170.181,1444.926c-7.182,0-13.004-5.814-13.004-12.997c0-7.184,5.822-13.002,13.004-13.002c7.184,0,13.002,5.818,13.002,13.002
	C1183.183,1439.11,1177.363,1444.926,1170.181,1444.926z M1227.39,1409.667h-114.418v-172.494h114.418V1409.667z"/>
<path fill="none" stroke="#1CE0F4" stroke-width="16" stroke-linecap="round" stroke-linejoin="round" stroke-miterlimit="10" d="
	M1082.46,1022.011"/>
<rect x="951.373" y="1236.855" fill="#FFFFFF" width="115" height="173"/>
<rect x="1112.373" y="1236.855" fill="#FFFFFF" width="114" height="173"/>
<path opacity="0.4" fill="#555555" enable-background="new    " d="M1446.988,1190.688h-93.613
	c-11.488,0-20.803,9.312-20.803,20.802v223.859c0,11.49,9.312,20.806,20.803,20.806h93.613c11.488,0,20.803-9.314,20.803-20.806
	v-223.859C1467.791,1199.999,1458.478,1190.688,1446.988,1190.688z M1389.953,1212.761h20.463c1.525,0,2.768,1.24,2.768,2.771
	c0,1.53-1.24,2.768-2.768,2.768h-20.463c-1.535,0-2.775-1.235-2.775-2.768S1388.417,1212.761,1389.953,1212.761z M1378.025,1211.7
	c1.824,0,3.305,1.479,3.305,3.302s-1.48,3.298-3.305,3.298c-1.822,0-3.303-1.476-3.303-3.298S1376.203,1211.7,1378.025,1211.7z
	 M1400.181,1444.926c-7.182,0-13.004-5.814-13.004-12.997c0-7.184,5.822-13.002,13.004-13.002c7.184,0,13.002,5.818,13.002,13.002
	C1413.183,1439.11,1407.363,1444.926,1400.181,1444.926z M1457.39,1409.667h-114.418v-172.494h114.418V1409.667z"/>
<rect x="1342.373" y="1236.855" opacity="0.4" fill="#FFFFFF" enable-background="new    " width="114" height="173"/>
<line fill="none" stroke="#85C1C9" stroke-width="6" stroke-miterlimit="10" x1="679.176" y1="855.961" x2="1092.177" y2="999.961"/>
<path fill="#FFFFFF" stroke="#85C1C9" stroke-width="6" stroke-linecap="round" stroke-miterlimit="10" d="M740.184,941.429
	c26.635-19.045,43.992-50.229,43.992-85.468c0-57.99-47.01-105-105-105s-105,47.01-105,105c0,35.412,17.53,66.729,44.387,85.748"/>
<path fill="#FFFFFF" stroke="#85C1C9" stroke-width="6" stroke-linecap="round" stroke-miterlimit="10" d="M1185.222,1048.667
	c7.637-14.557,11.955-31.126,11.955-48.706c0-57.99-47.012-105-105-105c-57.99,0-105,47.01-105,105
	c0,16.027,3.59,31.215,10.012,44.804"/>
<path fill="#FFFFFF" stroke="#1CE0F4" stroke-width="16" stroke-linecap="round" stroke-miterlimit="10" d="M1092.177,1104.961"/>
<text transform="matrix(1 0 0 1 660.9712 898.2773)" fill="#555555" font-family="'Aller-Bold'" font-size="121.7713">!</text>
<text transform="matrix(1 0 0 1 1073.9722 1042.7832)" fill="#555555" font-family="'Aller-Bold'" font-size="121.7713">!</text>
<polyline fill="none" stroke="#85C1C9" stroke-width="6" stroke-linecap="round" stroke-linejoin="round" stroke-miterlimit="10" points="
	618.562,941.709 679.372,1001.667 741.183,940.856 "/>
<polygon fill="#FFFFFF" stroke="#85C1C9" stroke-width="6" stroke-linecap="round" stroke-linejoin="round" stroke-miterlimit="10" points="
	858.777,963.045 912.56,936.452 885.968,882.667 "/>
<path fill="none" stroke="#1CE0F4" stroke-width="16" stroke-linecap="round" stroke-linejoin="round" stroke-miterlimit="10" d="
	M1105.218,1104.944"/>
<polyline fill="none" stroke="#85C1C9" stroke-width="6" stroke-linecap="round" stroke-linejoin="round" stroke-miterlimit="10" points="
	997.527,1044.77 1022.285,1127.702 1092.898,1108.324 "/>
<path fill="none" stroke="#1CE0F4" stroke-width="16" stroke-linecap="round" stroke-linejoin="round" stroke-miterlimit="10" d="
	M1079.527,1104.944"/>
<polyline fill="none" stroke="#85C1C9" stroke-width="6" stroke-linecap="round" stroke-linejoin="round" stroke-miterlimit="10" points="
	1186.216,1044.77 1162.46,1127.702 1092.201,1108.422 "/>
<path fill="none" stroke="#1CE0F4" stroke-width="16" stroke-linecap="round" stroke-linejoin="round" stroke-miterlimit="10" d="
	M1102.283,1022.011"/>
<path fill="#85C1C9" d="M1011.007,1362.421c-1.375,0.568-3.623,0.568-4.996,0l-23.357-9.676c-1.375-0.569-2.965-2.159-3.533-3.533
	l-9.676-23.356c-0.568-1.375-0.568-3.623,0-4.996l9.676-23.358c0.568-1.374,2.158-2.964,3.533-3.533l23.357-9.675
	c1.373-0.569,3.621-0.569,4.996,0l23.357,9.675c1.373,0.569,2.963,2.159,3.531,3.533l9.678,23.358c0.568,1.373,0.568,3.621,0,4.996
	l-9.678,23.356c-0.568,1.374-2.158,2.964-3.531,3.533L1011.007,1362.421z M1024.14,1342.922c1.375-0.568,2.965-2.159,3.533-3.533
	l5.57-13.445c0.568-1.373,0.568-3.622,0-4.996l-5.57-13.445c-0.568-1.374-2.158-2.964-3.533-3.533l-13.445-5.568
	c-1.373-0.569-3.621-0.569-4.996,0l-13.445,5.568c-1.373,0.569-2.963,2.159-3.533,3.533l-5.568,13.445
	c-0.568,1.374-0.568,3.623,0,4.996l5.568,13.445c0.57,1.374,2.16,2.965,3.533,3.533l13.445,5.569c1.375,0.568,3.623,0.568,4.996,0
	L1024.14,1342.922z"/>
<path fill="#85C1C9" d="M1171.871,1363.421c-1.375,0.568-3.623,0.568-4.996,0l-23.359-9.676c-1.373-0.569-2.963-2.159-3.531-3.533
	l-9.676-23.356c-0.568-1.375-0.568-3.623,0-4.996l9.676-23.358c0.568-1.374,2.158-2.964,3.531-3.533l23.359-9.675
	c1.373-0.569,3.621-0.569,4.996,0l23.357,9.675c1.373,0.569,2.963,2.159,3.531,3.533l9.676,23.358c0.57,1.373,0.57,3.621,0,4.996
	l-9.676,23.356c-0.568,1.374-2.158,2.964-3.531,3.533L1171.871,1363.421z M1185.003,1343.922c1.375-0.568,2.965-2.159,3.533-3.533
	l5.568-13.445c0.57-1.373,0.57-3.622,0-4.996l-5.568-13.445c-0.568-1.374-2.158-2.964-3.533-3.533l-13.445-5.568
	c-1.373-0.569-3.623-0.569-4.996,0l-13.445,5.568c-1.373,0.569-2.963,2.159-3.533,3.533l-5.568,13.445
	c-0.568,1.374-0.568,3.623,0,4.996l5.568,13.445c0.57,1.374,2.16,2.965,3.533,3.533l13.445,5.569c1.373,0.568,3.623,0.568,4.996,0
	L1185.003,1343.922z"/>
<path opacity="0.4" fill="#555555" enable-background="new    " d="M1401.871,1363.421c-1.375,0.568-3.623,0.568-4.996,0
	l-23.359-9.676c-1.373-0.569-2.963-2.159-3.531-3.533l-9.676-23.356c-0.568-1.375-0.568-3.623,0-4.996l9.676-23.358
	c0.568-1.374,2.158-2.964,3.531-3.533l23.359-9.675c1.373-0.569,3.621-0.569,4.996,0l23.357,9.675
	c1.373,0.569,2.963,2.159,3.531,3.533l9.676,23.358c0.57,1.373,0.57,3.621,0,4.996l-9.676,23.356
	c-0.568,1.374-2.158,2.964-3.531,3.533L1401.871,1363.421z M1415.003,1343.922c1.375-0.568,2.965-2.159,3.533-3.533l5.568-13.445
	c0.57-1.373,0.57-3.622,0-4.996l-5.568-13.445c-0.568-1.374-2.158-2.964-3.533-3.533l-13.445-5.568
	c-1.373-0.569-3.623-0.569-4.996,0l-13.445,5.568c-1.373,0.569-2.963,2.159-3.533,3.533l-5.568,13.445
	c-0.568,1.374-0.568,3.623,0,4.996l5.568,13.445c0.57,1.374,2.16,2.965,3.533,3.533l13.445,5.569c1.373,0.568,3.623,0.568,4.996,0
	L1415.003,1343.922z"/>
</svg>
