<?xml version="1.0" encoding="utf-8"?>
<!-- Generator: Adobe Illustrator 16.0.0, SVG Export Plug-In . SVG Version: 6.00 Build 0)  -->
<!DOCTYPE svg PUBLIC "-//W3C//DTD SVG 1.1//EN" "http://www.w3.org/Graphics/SVG/1.1/DTD/svg11.dtd">
<svg version="1.1" xmlns="http://www.w3.org/2000/svg" xmlns:xlink="http://www.w3.org/1999/xlink" x="0px" y="0px" width="450px"
	 height="880px" viewBox="286.5 70.5 450 880" enable-background="new 286.5 70.5 450 880" xml:space="preserve">
<g id="Layer_2" display="none">
	<rect x="106.982" y="-23.234" display="inline" fill="#48F769" width="944" height="1190"/>
</g>
<g id="Layer_1">
	<g>
		<path fill="#FFFFFF" d="M468.501,169.643c5.194,0,9.717-4.522,9.717-9.721c0-5.421-4.296-9.717-9.717-9.717
			c-5.425,0-9.716,4.296-9.716,9.717C458.785,165.347,463.076,169.643,468.501,169.643z M468.501,154.51
			c2.708,0,5.194,2.259,5.194,5.194c0,2.939-2.254,5.199-5.194,5.199c-2.938,0-5.198-2.259-5.198-5.199
			C463.303,156.769,465.562,154.51,468.501,154.51z"/>
		<path fill="#FFFFFF" d="M495.605,169.643h69.799c4.526,0,7.905-4.522,7.905-9.939c0-5.421-3.379-9.716-7.905-9.716h-69.799
			c-4.297,0-7.907,4.521-7.907,9.934C487.699,165.337,491.092,169.643,495.605,169.643z M495.605,154.51h69.799
			c1.813,0,3.389,2.486,3.389,5.425c0,2.708-1.583,5.194-3.389,5.194h-69.799c-1.811,0-3.385-2.486-3.385-5.426
			C492.222,156.996,493.805,154.51,495.605,154.51z"/>
		<path fill="#FFFFFF" d="M327.76,823.641h376.594l0,0V207.144H327.76V823.641z M332.274,211.657h367.553v607.466H332.274V211.657z"
			/>
		<path fill="#FFFFFF" d="M515.946,839.677c-21.244,0-38.413,17.175-38.413,38.413c0,21.229,17.169,38.404,38.413,38.404
			c21.229,0,38.402-17.175,38.402-38.404C554.35,856.852,537.176,839.677,515.946,839.677z M515.946,911.967
			c-18.757,0-33.891-15.129-33.891-33.877c0-18.758,15.134-33.886,33.891-33.886c18.748,0,33.876,15.128,33.876,33.886
			C549.822,896.838,534.686,911.967,515.946,911.967z"/>
		<path fill="#FFFFFF" d="M717.891,171.897v-11.744h-0.223v-17.846c0-27.558-22.368-49.921-49.922-49.921h-0.676v-7.009h-65.513
			v7.009H364.127c-27.558,0-49.921,22.363-49.921,49.921v17.846v11.744v18.98h-6.097v65.512h6.097v23.493h-6.097v38.862h6.097v9.935
			h-6.097v38.848h6.097v495.194v11.749v14.222c0,27.57,22.364,49.931,49.921,49.931h303.619c27.554,0,50.145-22.359,49.922-49.931
			V874.47h0.223v-11.749h-0.223V171.897H717.891z M606.067,90.118h56.476v1.583h-56.476V90.118z M318.724,167.384v-2.708
			 M312.618,251.875v-56.476h1.588v56.476H312.618z M312.618,314.222v-29.817h1.588v29.817H312.618z M312.618,363.018v-29.817h1.588
			v29.817H312.618z M713.15,867.238v2.713V867.238z M318.724,160.162V142.09c0-25.077,20.336-45.413,45.403-45.413v0.227h303.619
			c25.072,0,45.404,20.336,45.404,45.412v17.846v11.744V862.73v4.508v2.713v4.519v14.239c0,25.072-20.332,45.403-45.396,45.403
			H364.127c-25.077,0-45.403-20.341-45.403-45.403V874.47h0.323V862.73h-0.323V367.54v-38.853v-9.935V279.89v-23.493v-65.512v-18.98
			"/>
	</g>
	<path fill="#FFFFFF" d="M519.85,410.529c-2.194,0.91-5.79,0.91-7.987,0l-37.338-15.465c-2.195-0.91-4.738-3.451-5.648-5.646
		l-15.465-37.336c-0.91-2.198-0.91-5.793,0-7.988l15.465-37.339c0.91-2.192,3.453-4.736,5.648-5.646l37.338-15.465
		c2.197-0.91,5.792-0.91,7.987,0l37.337,15.465c2.197,0.91,4.738,3.454,5.646,5.646l15.465,37.339c0.913,2.198,0.913,5.791,0,7.988
		l-15.465,37.336c-0.907,2.195-3.448,4.736-5.646,5.646L519.85,410.529z M540.846,379.363c2.195-0.913,4.736-3.451,5.645-5.649
		l8.906-21.491c0.906-2.198,0.906-5.791,0-7.988l-8.906-21.494c-0.907-2.195-3.448-4.736-5.645-5.646l-21.494-8.903
		c-2.196-0.91-5.791-0.91-7.987,0l-21.493,8.903c-2.196,0.91-4.737,3.451-5.647,5.646l-8.902,21.494
		c-0.909,2.198-0.909,5.791,0,7.988l8.902,21.491c0.91,2.198,3.451,4.736,5.647,5.649l21.493,8.901c2.196,0.91,5.791,0.91,7.987,0
		L540.846,379.363z"/>
	<rect x="351.599" y="471.094" fill="none" width="326.984" height="355.482"/>
	<text transform="matrix(1 0 0 1 388.8477 512.6934)" fill="#FFFFFF" font-family="'Aller-Bold'" font-size="52">We’re run</text>
	<text transform="matrix(1 0 0 1 624.5068 512.6934)" fill="#FFFFFF" font-family="'Aller-Bold'" font-size="52">-</text>
	<text transform="matrix(1 0 0 1 370.4927 575.0938)" fill="#FFFFFF" font-family="'Aller-Bold'" font-size="52">ning late, so </text>
	<text transform="matrix(1 0 0 1 380.7358 637.4941)" fill="#FFFFFF" font-family="'Aller-Bold'" font-size="52">the concert </text>
	<text transform="matrix(1 0 0 1 377.0708 699.8936)" fill="#FFFFFF" font-family="'Aller-Bold'" font-size="52">will start @ </text>
	<text transform="matrix(1 0 0 1 454.2368 762.2939)" fill="#FFFFFF" font-family="'Aller-Bold'" font-size="52">8:30!</text>
</g>
</svg>
