<?xml version="1.0" encoding="utf-8"?>
<!-- Generator: Adobe Illustrator 16.0.0, SVG Export Plug-In . SVG Version: 6.00 Build 0)  -->
<!DOCTYPE svg PUBLIC "-//W3C//DTD SVG 1.1//EN" "http://www.w3.org/Graphics/SVG/1.1/DTD/svg11.dtd">
<svg version="1.1" xmlns="http://www.w3.org/2000/svg" xmlns:xlink="http://www.w3.org/1999/xlink" x="0px" y="0px" width="450px"
	 height="880px" viewBox="0 0 450 880" enable-background="new 0 0 450 880" xml:space="preserve">
<g id="Layer_2_1_" display="none">
	<rect display="inline" fill="#EDED43" width="450" height="880"/>
</g>
<g id="Layer_3">
</g>
<g id="Layer_1">
	<g id="Layer_2" display="none">
		<rect x="106.982" y="-23.234" display="inline" fill="#48F769" width="944" height="1190"/>
		<text transform="matrix(1 0 0 1 444.8359 512.6934)" display="inline" fill="#FFFFFF" font-family="'Aller-Bold'" font-size="52">Severe </text>
		<text transform="matrix(1 0 0 1 384.3096 575.0938)" display="inline" fill="#FFFFFF" font-family="'Aller-Bold'" font-size="52">weather ex</text>
		<text transform="matrix(1 0 0 1 651.5342 575.0938)" display="inline" fill="#FFFFFF" font-family="'Aller-Bold'" font-size="52">-</text>
		<text transform="matrix(1 0 0 1 371.4668 637.4941)" display="inline" fill="#FFFFFF" font-family="'Aller-Bold'" font-size="52">pected, care</text>
		
			<text transform="matrix(1 0 0 1 1326.4004 916.4941)" display="inline" fill="#FFFFFF" font-family="'Aller-Bold'" font-size="52">-</text>
		<text transform="matrix(1 0 0 1 402.4326 699.8936)" display="inline" fill="#FFFFFF" font-family="'Aller-Bold'" font-size="52">ful driving </text>
		<text transform="matrix(1 0 0 1 452.0127 762.2939)" display="inline" fill="#FFFFFF" font-family="'Aller-Bold'" font-size="52">home!</text>
	</g>
	<g id="Layer_1_1_">
		<g>
			<path fill="#FFFFFF" d="M180.501,97.643c5.194,0,9.717-4.522,9.717-9.721c0-5.421-4.296-9.717-9.717-9.717
				c-5.425,0-9.716,4.296-9.716,9.717C170.785,93.347,175.076,97.643,180.501,97.643z M180.501,82.51
				c2.708,0,5.194,2.259,5.194,5.194c0,2.939-2.254,5.199-5.194,5.199c-2.938,0-5.198-2.259-5.198-5.199
				C175.303,84.769,177.562,82.51,180.501,82.51z"/>
			<path fill="#FFFFFF" d="M207.605,97.643h69.799c4.525,0,7.904-4.522,7.904-9.939c0-5.421-3.379-9.716-7.904-9.716h-69.799
				c-4.298,0-7.907,4.521-7.907,9.934C199.699,93.337,203.092,97.643,207.605,97.643z M207.605,82.51h69.799
				c1.812,0,3.389,2.486,3.389,5.425c0,2.708-1.583,5.194-3.389,5.194h-69.799c-1.812,0-3.386-2.486-3.386-5.426
				C204.222,84.996,205.805,82.51,207.605,82.51z"/>
			<path fill="#FFFFFF" d="M39.76,751.641h376.594l0,0V135.144H39.76V751.641z M44.274,139.657h367.553v607.466H44.274V139.657z"/>
			<path fill="#FFFFFF" d="M227.946,767.677c-21.244,0-38.413,17.175-38.413,38.413c0,21.229,17.169,38.404,38.413,38.404
				c21.229,0,38.401-17.175,38.401-38.404C266.35,784.852,249.176,767.677,227.946,767.677z M227.946,839.967
				c-18.757,0-33.892-15.129-33.892-33.877c0-18.758,15.135-33.886,33.892-33.886c18.748,0,33.876,15.128,33.876,33.886
				C261.822,824.838,246.686,839.967,227.946,839.967z"/>
			<path fill="#FFFFFF" d="M429.891,99.897V88.153h-0.223V70.307c0-27.558-22.368-49.921-49.922-49.921h-0.676v-7.009h-65.514v7.009
				H76.127c-27.558,0-49.921,22.363-49.921,49.921v17.846v11.744v18.98h-6.097v65.512h6.097v23.493h-6.097v38.862h6.097v9.935
				h-6.097v38.848h6.097v495.194v11.749v14.223c0,27.569,22.364,49.931,49.921,49.931h303.619c27.554,0,50.145-22.359,49.922-49.931
				V802.47h0.223v-11.749h-0.223V99.897H429.891z M318.067,18.118h56.476v1.583h-56.476V18.118z M30.724,95.384v-2.708
				 M24.618,179.875v-56.476h1.588v56.476H24.618z M24.618,242.222v-29.817h1.588v29.817H24.618z M24.618,291.018v-29.817h1.588
				v29.817H24.618z M425.15,795.238v2.713V795.238z M30.724,88.162V70.09c0-25.077,20.336-45.413,45.403-45.413v0.227h303.619
				c25.072,0,45.404,20.336,45.404,45.412v17.846v11.744V790.73v4.508v2.713v4.519v14.239c0,25.072-20.332,45.403-45.396,45.403
				H76.127c-25.077,0-45.403-20.341-45.403-45.403V802.47h0.323V790.73h-0.323V295.54v-38.853v-9.935V207.89v-23.493v-65.512V99.905
				"/>
		</g>
		<path fill="#FFFFFF" d="M231.85,338.529c-2.193,0.91-5.79,0.91-7.986,0l-37.338-15.465c-2.195-0.91-4.738-3.451-5.648-5.646
			l-15.465-37.336c-0.91-2.198-0.91-5.793,0-7.988l15.465-37.339c0.91-2.192,3.453-4.736,5.648-5.646l37.338-15.465
			c2.196-0.91,5.792-0.91,7.986,0l37.337,15.465c2.197,0.91,4.738,3.454,5.646,5.646l15.465,37.339c0.913,2.198,0.913,5.791,0,7.988
			l-15.465,37.336c-0.907,2.195-3.448,4.736-5.646,5.646L231.85,338.529z M252.846,307.363c2.195-0.913,4.736-3.451,5.646-5.649
			l8.906-21.491c0.905-2.198,0.905-5.791,0-7.988l-8.906-21.494c-0.907-2.195-3.448-4.736-5.646-5.646l-21.494-8.903
			c-2.195-0.91-5.791-0.91-7.986,0l-21.493,8.903c-2.196,0.91-4.737,3.451-5.647,5.646l-8.901,21.494
			c-0.909,2.198-0.909,5.791,0,7.988l8.901,21.491c0.91,2.198,3.451,4.736,5.647,5.649l21.493,8.901c2.195,0.91,5.791,0.91,7.986,0
			L252.846,307.363z"/>
		<rect x="63.599" y="399.094" fill="none" width="326.984" height="355.482"/>
	</g>
	<g>
		<path fill="#FFFFFF" d="M716.084,97.644c5.194,0,9.717-4.522,9.717-9.721c0-5.421-4.296-9.717-9.717-9.717
			c-5.425,0-9.716,4.296-9.716,9.717C706.368,93.348,710.659,97.644,716.084,97.644z M716.084,82.51
			c2.708,0,5.194,2.259,5.194,5.194c0,2.939-2.254,5.199-5.194,5.199c-2.938,0-5.198-2.259-5.198-5.199
			C710.886,84.77,713.146,82.51,716.084,82.51z"/>
		<path fill="#FFFFFF" d="M743.188,97.644h69.799c4.526,0,7.905-4.522,7.905-9.939c0-5.421-3.379-9.716-7.905-9.716h-69.799
			c-4.297,0-7.907,4.521-7.907,9.934C735.282,93.337,738.675,97.644,743.188,97.644z M743.188,82.51h69.799
			c1.813,0,3.389,2.486,3.389,5.425c0,2.708-1.583,5.194-3.389,5.194h-69.799c-1.811,0-3.385-2.486-3.385-5.426
			C739.805,84.997,741.388,82.51,743.188,82.51z"/>
		<path fill="#FFFFFF" d="M575.343,751.641h376.594l0,0V135.145H575.343V751.641z M579.857,139.658H947.41v607.465H579.857V139.658z
			"/>
		<path fill="#FFFFFF" d="M763.529,767.678c-21.244,0-38.413,17.174-38.413,38.412c0,21.23,17.169,38.404,38.413,38.404
			c21.229,0,38.402-17.174,38.402-38.404C801.933,784.852,784.759,767.678,763.529,767.678z M763.529,839.967
			c-18.757,0-33.891-15.129-33.891-33.877c0-18.758,15.134-33.885,33.891-33.885c18.748,0,33.876,15.127,33.876,33.885
			C797.405,824.838,782.269,839.967,763.529,839.967z"/>
		<path fill="#FFFFFF" d="M965.474,99.897V88.153h-0.223V70.308c0-27.558-22.368-49.921-49.922-49.921h-0.676v-7.009h-65.513v7.009
			H611.71c-27.558,0-49.921,22.363-49.921,49.921v17.846v11.744v18.98h-6.097v65.512h6.097v23.493h-6.097v38.862h6.097v9.935h-6.097
			v38.848h6.097v495.193v11.75v14.221c0,27.57,22.364,49.932,49.921,49.932h303.619c27.554,0,50.145-22.359,49.922-49.932v-14.221
			h0.223v-11.75h-0.223V99.897H965.474z M853.65,18.119h56.476v1.583H853.65V18.119z M566.307,95.384v-2.708 M560.201,179.875
			v-56.476h1.588v56.476H560.201z M560.201,242.223v-29.817h1.588v29.817H560.201z M560.201,291.019v-29.817h1.588v29.817H560.201z
			 M960.733,795.238v2.713V795.238z M566.307,88.163V70.09c0-25.077,20.336-45.413,45.403-45.413v0.227h303.619
			c25.072,0,45.404,20.336,45.404,45.412v17.846v11.744V790.73v4.508v2.713v4.52v14.238c0,25.072-20.332,45.404-45.396,45.404
			H611.71c-25.077,0-45.403-20.342-45.403-45.404v-14.238h0.323v-11.74h-0.323v-495.19v-38.853v-9.935v-38.862v-23.493v-65.512
			v-18.98"/>
	</g>
	<path fill="#FFFFFF" d="M767.433,338.53c-2.194,0.91-5.79,0.91-7.987,0l-37.339-15.465c-2.194-0.91-4.737-3.451-5.647-5.646
		l-15.465-37.336c-0.91-2.198-0.91-5.793,0-7.988l15.465-37.339c0.91-2.192,3.453-4.736,5.647-5.646l37.339-15.465
		c2.197-0.91,5.792-0.91,7.987,0l37.337,15.465c2.197,0.91,4.738,3.454,5.646,5.646l15.465,37.339c0.913,2.198,0.913,5.791,0,7.988
		l-15.465,37.336c-0.907,2.195-3.448,4.736-5.646,5.646L767.433,338.53z M788.429,307.364c2.195-0.913,4.736-3.451,5.645-5.649
		l8.906-21.491c0.906-2.198,0.906-5.791,0-7.988l-8.906-21.494c-0.907-2.195-3.448-4.736-5.645-5.646l-21.494-8.903
		c-2.196-0.91-5.791-0.91-7.987,0l-21.493,8.903c-2.196,0.91-4.737,3.451-5.647,5.646l-8.902,21.494
		c-0.909,2.198-0.909,5.791,0,7.988l8.902,21.491c0.91,2.198,3.451,4.736,5.647,5.649l21.493,8.901c2.196,0.91,5.791,0.91,7.987,0
		L788.429,307.364z"/>
	<rect x="599.182" y="399.094" fill="none" width="326.984" height="355.482"/>
	<rect x="64.564" y="412.835" fill="none" width="326.984" height="304"/>
	<text transform="matrix(1 0 0 1 145.3257 451.1064)"><tspan x="0" y="0" fill="#FFFFFF" font-family="'Aller-Bold'" font-size="52">Severe </tspan><tspan x="-57.095" y="62.4" fill="#FFFFFF" font-family="'Aller-Bold'" font-size="52">weather re</tspan><tspan x="203.265" y="62.4" fill="#FFFFFF" font-family="'Aller-Bold'" font-size="52">-</tspan><tspan x="-41.729" y="124.8" fill="#FFFFFF" font-family="'Aller-Bold'" font-size="52">ported, all </tspan><tspan x="-39.103" y="187.2" fill="#FFFFFF" font-family="'Aller-Bold'" font-size="52">flights are </tspan><tspan x="-32.838" y="249.601" fill="#FFFFFF" font-family="'Aller-Bold'" font-size="52">grounded</tspan></text>
</g>
</svg>
